{"title":"Grand Masti (2013) 757MB DVDScr Xvid (Desidhamal) ][VAMPIRE ROCK","uid":8921931,"size":797289372,"categoryP":"video","categoryS":"movies","magnet":"?xt=urn:btih:ad1e23df363ba9a938987b4639c7648eb5581582&amp;dn=Grand+Masti+%282013%29+757MB+DVDScr+Xvid+%28Desidhamal%29+%5D%5BVAMPIRE+ROCK&amp;tr=udp%3A%2F%2Ftracker.openbittorrent.com%3A80&amp;tr=udp%3A%2F%2Fopen.demonii.com%3A1337&amp;tr=udp%3A%2F%2Ftracker.coppersurfer.tk%3A6969&amp;tr=udp%3A%2F%2Fexodus.desync.com%3A6969","seeders":1,"leechers":0,"uploader":"bhoottt","files":12,"time":1379273871,"description":"Grand Masti (2013) 757MB DVDScr Xvid (Desidhamal) ][VAMPIRE ROCK'S][\n\n\n[URL=http://www.tinyuploads.com/gallery/view/acb0ui][IMG]http://i.tinyuploads.com/acb0ui.jpg[/IMG][/URL]\n\n\n[URL=http://www.tinyuploads.com/gallery/view/tV2a5X][IMG]http://i.tinyuploads.com/tV2a5X.png[/IMG][/URL]\n[URL=http://www.tinyuploads.com/gallery/view/eVSI9o][IMG]http://i.tinyuploads.com/eVSI9o.png[/IMG][/URL]\n[URL=http://www.tinyuploads.com/gallery/view/y4PIMN][IMG]http://i.tinyuploads.com/y4PIMN.png[/IMG][/URL]\n[URL=http://www.tinyuploads.com/gallery/view/tU7JBL][IMG]http://i.tinyuploads.com/tU7JBL.png[/IMG][/URL]\n[URL=http://www.tinyuploads.com/gallery/view/Q0LaNU][IMG]http://i.tinyuploads.com/Q0LaNU.png[/IMG][/URL]\n[URL=http://www.tinyuploads.com/gallery/view/1kc64R][IMG]http://i.tinyuploads.com/1kc64R.png[/IMG][/URL]\n[URL=http://www.tinyuploads.com/gallery/view/8eyRNP][IMG]http://i.tinyuploads.com/8eyRNP.png[/IMG][/URL]\n[URL=http://www.tinyuploads.com/gallery/view/4Js3cs][IMG]http://i.tinyuploads.com/4Js3cs.png[/IMG][/URL]\n[URL=http://www.tinyuploads.com/gallery/view/mjT9Fr][IMG]http://i.tinyuploads.com/mjT9Fr.png[/IMG][/URL]\n\n\n\nGeneral\nFormat                                   : AVI\nFormat/Info                              : Audio Video Interleave\nFile size                                : 758 MiB\nDuration                                 : 2h 13mn\nOverall bit rate                         : 794 Kbps\n\nVideo\nID                                       : 0\nFormat                                   : MPEG-4 Visual\nFormat profile                           : Advanced Simple@L5\nFormat settings, BVOP                    : 2\nFormat settings, QPel                    : No\nFormat settings, GMC                     : No warppoints\nFormat settings, Matrix                  : Default (H.263)\nCodec ID                                 : XVID\nCodec ID/Hint                            : XviD\nDuration                                 : 2h 13mn\nBit rate                                 : 593 Kbps\nWidth                                    : 720 pixels\nHeight                                   : 256 pixels\nDisplay aspect ratio                     : 2.813\nFrame rate                               : 29.970 fps\nColor space                              : YUV\nChroma subsampling                       : 4:2:0\nBit depth                                : 8 bits\nScan type                                : Progressive\nCompression mode                         : Lossy\nBits/(Pixel*Frame)                       : 0.107\nStream size                              : 566 MiB (75%)\nWriting library                          : XviD 1.2.1 (UTC 2008-12-04)\n\nAudio\nID                                       : 1\nFormat                                   : AC-3\nFormat/Info                              : Audio Coding 3\nMode extension                           : CM (complete main)\nFormat settings, Endianness              : Big\nCodec ID                                 : 2000\nDuration                                 : 2h 13mn\nBit rate mode                            : Constant\nBit rate                                 : 192 Kbps\nChannel(s)                               : 2 channels\nChannel positions                        : Front: L R\nSampling rate                            : 48.0 KHz\nBit depth                                : 16 bits\nCompression mode                         : Lossy\nStream size                              : 183 MiB (24%)\nAlignment                                : Aligned on interleaves\nInterleave, duration                     : 64 ms (1.92 video frames)\nInterleave, preload duration             : 192 ms\n\n\nHit Thanks if you like my Rip &amp; Post....\n","torrent":{"xt":"urn:btih:ad1e23df363ba9a938987b4639c7648eb5581582","amp;dn":"Grand+Masti+%282013%29+757MB+DVDScr+Xvid+%28Desidhamal%29+%5D%5BVAMPIRE+ROCK","amp;tr":["udp%3A%2F%2Ftracker.openbittorrent.com%3A80","udp%3A%2F%2Fopen.demonii.com%3A1337","udp%3A%2F%2Ftracker.coppersurfer.tk%3A6969","udp%3A%2F%2Fexodus.desync.com%3A6969"],"infoHash":"ad1e23df363ba9a938987b4639c7648eb5581582","infoHashBuffer":{"type":"Buffer","data":[173,30,35,223,54,59,169,169,56,152,123,70,57,199,100,142,181,88,21,130]},"announce":[],"urlList":[]}}